<mxfile host="app.diagrams.net" modified="2023-11-05T12:57:33.444Z" agent="Mozilla/5.0 (Macintosh; Intel Mac OS X 10_15_7) AppleWebKit/605.1.15 (KHTML, like Gecko) Version/17.0 Safari/605.1.15" version="22.0.8" etag="UaOWK9euJzTa_NP3dwoJ" type="github">
  <diagram name="Page-1" id="6lTSdx08ND9CwKVWBseb">
    <mxGraphModel>
      <root>
        <mxCell id="0" />
        <mxCell id="1" parent="0" />
      </root>
    </mxGraphModel>
  </diagram>
</mxfile>
